<svg width="24" height="24" fill="none" xmlns="http://www.w3.org/2000/svg"><mask id="mask0" maskUnits="userSpaceOnUse" x="4" y="4" width="16" height="16"><path fill-rule="evenodd" clip-rule="evenodd" d="M12 5.9a2.1 2.1 0 110 4.2 2.1 2.1 0 010-4.2zm0 9c2.97 0 6.1 1.46 6.1 2.1v1.1H5.9V17c0-.64 3.13-2.1 6.1-2.1zM12 4C9.79 4 8 5.79 8 8s1.79 4 4 4 4-1.79 4-4-1.79-4-4-4zm0 9c-2.67 0-8 1.34-8 4v3h16v-3c0-2.66-5.33-4-8-4z" fill="#fff"/></mask><g mask="url(#mask0)"><path fill="#CCC" d="M-13-13h50v50h-50z"/><mask id="mask1" maskUnits="userSpaceOnUse" x="-13" y="-13" width="50" height="50"><path fill="#fff" d="M-13-13h50v50h-50z"/></mask></g></svg>