<svg width="24" height="24" fill="none" xmlns="http://www.w3.org/2000/svg"><path fill-rule="evenodd" clip-rule="evenodd" d="M14.83 8a3.001 3.001 0 01-5.66 0H3V6h6.17a3.001 3.001 0 015.66 0H21v2h-6.171zm3.173 0L23 16a5 5 0 01-10 0l5.003-8zm-12 0L11 16a5 5 0 01-10 0l5.003-8zM3 16h-.182l3.184-5.004L9.177 16H9a3 3 0 11-6 0zm11.818 0H15a3 3 0 106 0h.177l-3.175-5.004L14.818 16zM4 15h4v2H4v-2zm16 0h-4v2h4v-2z" fill="#CCC"/><mask id="mask0" maskUnits="userSpaceOnUse" x="1" y="4" width="22" height="17"><path fill-rule="evenodd" clip-rule="evenodd" d="M14.83 8a3.001 3.001 0 01-5.66 0H3V6h6.17a3.001 3.001 0 015.66 0H21v2h-6.171zm3.173 0L23 16a5 5 0 01-10 0l5.003-8zm-12 0L11 16a5 5 0 01-10 0l5.003-8zM3 16h-.182l.637-1h5.087l.635 1H9c0 .35-.06.687-.17 1H3.17c-.11-.313-.17-.65-.17-1zm.17 1a3.001 3.001 0 005.66 0H10v-2H8.542l-2.54-4.004L3.455 15H2v2h1.17zm11.648-1H15c0 .35.06.687.17 1H14v-2h1.455l-.637 1zm5.724-1h-5.087l2.547-4.004L20.542 15zm.287 2c.11-.313.171-.65.171-1h.177l-.635-1H22v2h-1.17zm0 0h-5.658a3.001 3.001 0 005.658 0z" fill="#fff"/></mask><g mask="url(#mask0)"><path fill="#CCC" d="M-13-13h50v50h-50z"/><mask id="mask1" maskUnits="userSpaceOnUse" x="-13" y="-13" width="50" height="50"><path fill="#fff" d="M-13-13h50v50h-50z"/></mask></g></svg>