<svg width="24" height="24" fill="none" xmlns="http://www.w3.org/2000/svg"><path fill="#fff" d="M0 0h24v24H0z"/><path fill-rule="evenodd" clip-rule="evenodd" d="M9 4h6a5 5 0 015 5v6a5 5 0 01-5 5H9a5 5 0 01-5-5V9a5 5 0 015-5zm6 14.5c1.93 0 3.5-1.57 3.5-3.5V9c0-1.93-1.57-3.5-3.5-3.5H9C7.07 5.5 5.5 7.07 5.5 9v6c0 1.93 1.57 3.5 3.5 3.5h6z" fill="#CCC"/><path fill-rule="evenodd" clip-rule="evenodd" d="M8 12a4 4 0 118 0 4 4 0 01-8 0zm1.5 0c0 1.378 1.122 2.5 2.5 2.5s2.5-1.122 2.5-2.5c0-1.379-1.122-2.5-2.5-2.5A2.503 2.503 0 009.5 12zm6.8-3.767a.533.533 0 100-1.066.533.533 0 000 1.066z" fill="#CCC"/></svg>