<svg width="24" height="24" fill="none" xmlns="http://www.w3.org/2000/svg"><path fill="#fff" d="M0 0h24v24H0z"/><path fill-rule="evenodd" clip-rule="evenodd" d="M11.145 15.209c-1.276-.129-2.427-.432-3.412-1.177-.122-.093-.249-.182-.36-.286-.431-.4-.475-.859-.134-1.331.292-.404.782-.513 1.292-.28.098.045.192.1.282.161 1.836 1.22 4.358 1.253 6.201.055.183-.136.378-.246.604-.302.44-.11.85.047 1.086.419.27.425.267.84-.066 1.17-.51.505-1.122.87-1.803 1.126-.644.241-1.35.363-2.048.444.106.11.155.165.221.229.948.92 1.9 1.837 2.845 2.76.322.316.39.706.212 1.072-.194.4-.628.663-1.053.635-.27-.018-.48-.148-.666-.33-.716-.696-1.444-1.379-2.145-2.088-.204-.206-.302-.167-.482.012-.72.716-1.451 1.421-2.187 2.123-.33.315-.724.371-1.107.191-.407-.19-.666-.592-.646-.996.014-.273.153-.482.347-.67.938-.905 1.873-1.813 2.81-2.72.061-.06.119-.124.209-.217z" fill="#CCC"/><path fill-rule="evenodd" clip-rule="evenodd" d="M7.792 8.019c-.013 2.204 1.854 4.028 4.13 4.036 2.3.008 4.18-1.775 4.192-3.975.011-2.252-1.838-4.074-4.142-4.08-2.299-.006-4.167 1.79-4.18 4.019zm4.164-1.962c1.13 0 2.032.872 2.036 1.967.003 1.094-.896 1.971-2.026 1.975-1.133.004-2.042-.861-2.05-1.952-.01-1.104.9-1.991 2.04-1.99z" fill="#CCC"/></svg>