<svg width="24" height="24" fill="none" xmlns="http://www.w3.org/2000/svg"><mask id="mask0" maskUnits="userSpaceOnUse" x="2" y="3" width="20" height="18"><path fill-rule="evenodd" clip-rule="evenodd" d="M19 8H5c-1.66 0-3 1.34-3 3v6h4v4h12v-4h4v-6c0-1.66-1.34-3-3-3zm-3 11H8v-5h8v5zm3-7c-.55 0-1-.45-1-1s.45-1 1-1 1 .45 1 1-.45 1-1 1zm-1-9H6v4h12V3z" fill="#fff"/></mask><g mask="url(#mask0)"><path fill="#CCC" d="M-13-13h50v50h-50z"/><mask id="mask1" maskUnits="userSpaceOnUse" x="-13" y="-13" width="50" height="50"><path fill="#fff" d="M-13-13h50v50h-50z"/></mask></g></svg>