<svg width="24" height="24" fill="none" xmlns="http://www.w3.org/2000/svg"><path fill="#fff" d="M0 0h24v24H0z"/><path fill-rule="evenodd" clip-rule="evenodd" d="M21.564 7.677c.132-.39 0-.677-.629-.677h-2.078c-.529 0-.772.248-.904.521 0 0-1.058 2.283-2.555 3.766-.484.43-.705.566-.969.566-.132 0-.323-.136-.323-.526v-3.65c0-.468-.154-.677-.594-.677h-3.267c-.33 0-.528.217-.528.423 0 .444.748.547.825 1.796v2.713c0 .594-.12.702-.385.702-.705 0-2.419-2.293-3.435-4.918-.2-.51-.4-.716-.93-.716h-2.08C3.12 7 3 7.248 3 7.521c0 .488.705 2.908 3.281 6.108C8 15.815 10.42 17 12.621 17c1.321 0 1.485-.263 1.485-.716v-1.652c0-.527.125-.632.543-.632.309 0 .837.137 2.07 1.19 1.41 1.25 1.642 1.81 2.435 1.81h2.078c.594 0 .891-.263.72-.782-.188-.518-.86-1.269-1.753-2.16-.485-.507-1.212-1.053-1.432-1.326-.308-.352-.22-.508 0-.82 0 0 2.533-3.162 2.797-4.235z" fill="#CCC"/></svg>